Patient4_TMGait_0pt5_01_right_17_GRF.mot
version=1
nRows=78
nColumns=19
inDegrees=no
endheader
time	F1x	F1y	F1z	M1x	M1y	M1z	F2x	F2y	F2z	M2x	M2y	M2z	EC1x	EC1y	EC1z	EC2x	EC2y	EC2z
22.07	-11.7171	781.3516	74.9752	-284.4054	-67.3417	686.3965	-10.0379	9.0433	-1.7801	3.054	3.1996	15.0203	-0.0592	0.0182	-0.0073	-0.0462	0.0165	0.9585
22.0832	-11.1482	773.8035	73.4065	-280.8832	-65.484	678.2532	-6.7529	6.8609	-1.0119	2.3149	2.0071	10.804	-0.0592	0.0182	-0.0073	-0.0462	0.0165	0.9585
22.0964	-10.4394	764.1419	71.5943	-276.7084	-63.3343	667.7698	-4.0042	5.0392	-0.45705	1.7234	1.0687	7.2844	-0.0592	0.0182	-0.0073	-0.0462	0.0165	0.9585
22.1096	-9.5974	753.0802	69.5876	-272.2077	-60.9527	655.5317	-1.9331	3.6856	-0.10068	1.3025	0.40153	4.6552	-0.0592	0.0182	-0.0073	-0.0462	0.0165	0.9585
22.1229	-8.5756	741.6219	67.4066	-267.7783	-58.3519	642.3724	-0.51869	2.791	0.10458	1.0392	-0.030333	2.9005	-0.0592	0.0182	-0.0073	-0.0462	0.0165	0.9585
22.1361	-7.2926	730.8159	65.1074	-263.8095	-55.5617	629.1628	0.33087	2.2843	0.19432	0.90076	-0.26179	1.8903	-0.0592	0.0182	-0.0073	-0.0462	0.0165	0.9585
22.1493	-5.6069	721.5747	62.722	-260.6277	-52.5665	616.6525	0.75946	2.0359	0.21102	0.83929	-0.34719	1.3949	-0.0592	0.0182	-0.0073	-0.0462	0.0165	0.9585
22.1625	-3.3582	714.5993	60.3217	-258.4695	-49.375	605.4209	0.87646	1.9155	0.1793	0.80582	-0.32178	1.2117	-0.0592	0.0182	-0.0073	-0.0462	0.0165	0.9585
22.1757	-0.40418	710.3324	57.949	-257.4697	-45.9702	595.8372	0.80802	1.7685	0.12902	0.7473	-0.23753	1.1052	-0.0592	0.0182	-0.0073	-0.0462	0.0165	0.9585
22.1889	3.3323	708.9438	55.6896	-257.6474	-42.3912	588.0845	0.62753	1.4474	0.072144	0.61127	-0.12246	0.88068	-0.0592	0.0182	-0.0073	-0.0462	0.0165	0.9585
22.2021	7.841	710.3415	53.6234	-258.9115	-38.6974	582.1781	0.39762	0.80567	0.025532	0.34685	-0.0074845	0.35569	-0.0592	0.0182	-0.0073	-0.0462	0.0165	0.9585
22.2154	13.0125	714.1567	51.8787	-261.0611	-35.0207	577.9671	0.1685	-0.28112	-0.0069829	-0.091044	0.091212	-0.61876	-0.0592	0.0182	-0.0073	-0.0462	0.0165	0.9585
22.2286	18.6626	719.8099	50.554	-263.8166	-31.4961	575.1654	-0.027482	-1.8698	-0.016656	-0.72475	0.15733	-2.1118	-0.0592	0.0182	-0.0073	-0.0462	0.0165	0.9585
22.2418	24.5454	726.5925	49.7356	-266.8536	-28.278	573.4159	-0.13493	-3.9543	-0.0013093	-1.5505	0.17218	-4.1332	-0.0592	0.0182	-0.0073	-0.0462	0.0165	0.9585
22.255	30.4073	733.7503	49.4365	-269.8411	-25.4659	572.3355	-0.12748	-6.3689	0.052808	-2.5054	0.1084	-6.5132	-0.0592	0.0182	-0.0073	-0.0462	0.0165	0.9585
22.2682	35.9946	740.5477	49.6343	-272.4705	-23.1369	571.5364	0.063139	-8.7468	0.1562	-3.4434	-0.070458	-8.8947	-0.0592	0.0182	-0.0073	-0.0462	0.0165	0.9585
22.2814	41.0663	746.2834	50.2644	-274.4639	-21.3321	570.6129	0.49844	-10.409	0.32261	-4.0965	-0.40054	-10.599	-0.0592	0.0182	-0.0073	-0.0462	0.0165	0.9585
22.2946	45.4566	750.308	51.2435	-275.5795	-20.0569	569.1279	1.2495	-10.3122	0.55651	-4.0491	-0.91278	-10.5896	-0.0592	0.0182	-0.0073	-0.0462	0.0165	0.9585
22.3079	49.063	752.0337	52.4372	-275.6193	-19.2517	566.6459	2.381	-6.9654	0.85397	-2.7103	-1.624	-7.3974	-0.0592	0.0182	-0.0073	-0.0462	0.0165	0.9585
22.3211	51.8723	750.9337	53.6963	-274.4303	-18.8182	562.7289	3.9006	1.5592	1.1943	0.68109	-2.5112	0.87804	-0.0592	0.0182	-0.0073	-0.0462	0.0165	0.9585
22.3343	53.9314	746.5829	54.8529	-271.9142	-18.6149	556.9828	5.7478	17.4585	1.523	6.996	-3.4907	16.3949	-0.0592	0.0182	-0.0073	-0.0462	0.0165	0.9585
22.3475	55.3669	738.6532	55.756	-268.0171	-18.488	549.0613	7.6998	42.9064	1.7386	17.092	-4.3696	41.3123	-0.0592	0.0182	-0.0073	-0.0462	0.0165	0.9585
22.3607	56.3355	726.8391	56.2541	-262.7004	-18.2694	538.6216	9.3105	79.4556	1.6787	31.58	-4.8051	77.1673	-0.0592	0.0182	-0.0073	-0.0462	0.0165	0.9585
22.3739	56.9567	710.7385	56.2108	-255.8899	-17.8207	525.2697	9.6296	127.2774	1.1462	50.5194	-4.2318	124.1544	-0.0592	0.0182	-0.0073	-0.0462	0.0165	0.9585
22.3871	57.2854	689.7218	55.4742	-247.4276	-17.0152	508.4566	7.225	184.1706	-0.10159	73.0306	-1.8657	180.1498	-0.0592	0.0182	-0.0073	-0.0462	0.0165	0.9585
22.4004	57.2514	662.9603	53.9175	-237.0725	-15.7955	487.5485	1.3988	245.1298	-2.3657	97.1159	2.8332	240.2828	-0.0592	0.0182	-0.0073	-0.0462	0.0165	0.9585
22.4136	56.6886	629.6227	51.4684	-224.5641	-14.1845	461.9409	-6.8531	303.4153	-5.8859	120.1068	9.6733	297.8229	-0.0592	0.0182	-0.0073	-0.0462	0.0165	0.9585
22.4268	55.3664	589.2575	48.1987	-209.7465	-12.3315	431.3507	-15.9051	354.2109	-10.3362	140.1071	17.6549	347.7856	-0.0592	0.0182	-0.0073	-0.0462	0.0165	0.9585
22.44	53.105	542.0912	44.281	-192.6796	-10.4224	395.9961	-24.3623	396.4273	-15.0614	156.6992	25.5637	388.8693	-0.0592	0.0182	-0.0073	-0.0462	0.0165	0.9585
22.4532	49.8233	489.0509	39.9542	-173.6577	-8.6494	356.588	-31.2714	431.6085	-19.4545	170.507	32.4304	422.4948	-0.0592	0.0182	-0.0073	-0.0462	0.0165	0.9585
22.4664	45.5033	431.625	35.3824	-153.1711	-7.1175	314.2306	-36.1492	462.2661	-23.1251	182.5273	37.7027	451.1174	-0.0592	0.0182	-0.0073	-0.0462	0.0165	0.9585
22.4796	40.1564	371.683	30.6994	-131.8505	-5.9054	270.2841	-38.9432	490.7934	-25.9705	193.6888	41.2861	477.1196	-0.0592	0.0182	-0.0073	-0.0462	0.0165	0.9585
22.4929	33.8463	311.3657	26.0172	-110.4282	-5.0602	226.2941	-39.9256	519.076	-28.2339	204.6918	43.5539	502.4171	-0.0592	0.0182	-0.0073	-0.0462	0.0165	0.9585
22.5061	26.7536	252.9644	21.4958	-89.6954	-4.6266	183.8943	-39.6442	548.4199	-30.3991	215.9839	45.2086	528.4215	-0.0592	0.0182	-0.0073	-0.0462	0.0165	0.9585
22.5193	19.2649	198.6944	17.3033	-70.4263	-4.577	144.627	-38.7626	579.4447	-33.04	227.7392	47.0739	555.8904	-0.0592	0.0182	-0.0073	-0.0462	0.0165	0.9585
22.5325	11.9534	150.3796	13.5965	-53.2651	-4.8038	109.7249	-37.9277	612.0562	-36.5784	239.8723	49.8123	584.8681	-0.0592	0.0182	-0.0073	-0.0462	0.0165	0.9585
22.5457	5.4387	109.1606	10.4668	-38.6212	-5.1327	79.9373	-37.6602	645.5608	-41.1428	252.0999	53.7507	614.7857	-0.0592	0.0182	-0.0073	-0.0462	0.0165	0.9585
22.5589	0.19303	75.4198	7.9271	-26.6372	-5.3878	55.5089	-38.1602	678.9041	-46.4669	264.0437	58.7213	644.6454	-0.0592	0.0182	-0.0073	-0.0462	0.0165	0.9585
22.5721	-3.4932	48.9138	5.8925	-17.2299	-5.3969	36.2648	-39.3576	710.8204	-52.0295	275.2732	64.2054	673.2179	-0.0592	0.0182	-0.0073	-0.0462	0.0165	0.9585
22.5854	-5.544	29.0073	4.223	-10.1742	-5.0311	21.7594	-40.9853	739.7605	-57.2788	285.2643	69.5757	698.9736	-0.0592	0.0182	-0.0073	-0.0462	0.0165	0.9585
22.5986	-6.0778	14.8445	2.8205	-5.1627	-4.2712	11.3914	-42.6961	763.9848	-61.7897	293.4206	74.289	720.2195	-0.0592	0.0182	-0.0073	-0.0462	0.0165	0.9585
22.6118	-5.4861	5.5065	1.6537	-1.8634	-3.2452	4.5127	-44.1555	781.8443	-65.2676	299.1761	77.9335	735.3742	-0.0592	0.0182	-0.0073	-0.0462	0.0165	0.9585
22.625	-4.3551	0.056864	0.76726	0.063589	-2.2062	0.47314	-45.0977	792.2372	-67.5465	302.1625	80.2518	743.3977	-0.0592	0.0182	-0.0073	-0.0462	0.0165	0.9585
22.6382	-3.0847	-2.544	0.15892	0.98581	-1.3104	-1.4693	-45.3479	795.0146	-68.5752	302.3628	81.1353	744.1647	-0.0592	0.0182	-0.0073	-0.0462	0.0165	0.9585
22.6514	-1.9198	-3.2472	-0.21995	1.2362	-0.61273	-1.9889	-44.8255	791.0781	-68.431	300.1479	80.6325	738.524	-0.0592	0.0182	-0.0073	-0.0462	0.0165	0.9585
22.6646	-0.97048	-2.8349	-0.41536	1.0881	-0.1213	-1.6662	-43.5715	782.1743	-67.3069	296.1919	78.9439	728.1141	-0.0592	0.0182	-0.0073	-0.0462	0.0165	0.9585
22.6779	-0.2776	-1.8842	-0.48656	0.74358	0.1942	-0.94581	-41.71	770.4803	-65.4722	291.3174	76.3692	714.9553	-0.0592	0.0182	-0.0073	-0.0462	0.0165	0.9585
22.6911	0.17503	-0.77229	-0.47522	0.33704	0.3668	-0.11039	-39.4254	758.2017	-63.2082	286.3495	73.2382	701.072	-0.0592	0.0182	-0.0073	-0.0462	0.0165	0.9585
22.7043	0.44387	0.27543	-0.41506	-0.05234	0.43555	0.66529	-36.8911	747.2517	-60.7758	281.9996	69.8596	688.1923	-0.0592	0.0182	-0.0073	-0.0462	0.0165	0.9585
22.7175	0.57247	1.1562	-0.32857	-0.38703	0.42922	1.3199	-34.243	739.0373	-58.3996	278.7845	66.4924	677.5734	-0.0592	0.0182	-0.0073	-0.0462	0.0165	0.9585
22.7307	0.61254	1.8354	-0.2364	-0.65313	0.37914	1.8291	-31.5737	734.3372	-56.2696	276.9817	63.3438	669.8969	-0.0592	0.0182	-0.0073	-0.0462	0.0165	0.9585
22.7439	0.59371	2.3257	-0.14848	-0.85197	0.3028	2.2135	-28.9264	733.294	-54.525	276.6299	60.5532	665.2632	-0.0592	0.0182	-0.0073	-0.0462	0.0165	0.9585
22.7571	0.54404	2.6493	-0.075721	-0.99039	0.2218	2.4838	-26.2983	735.5301	-53.2516	277.5748	58.1911	663.3013	-0.0592	0.0182	-0.0073	-0.0462	0.0165	0.9585
22.7704	0.47553	2.8271	-0.015088	-1.0741	0.14247	2.6454	-23.6332	740.3065	-52.4667	279.5318	56.2447	663.3133	-0.0592	0.0182	-0.0073	-0.0462	0.0165	0.9585
22.7836	0.38923	2.8747	0.028003	-1.1066	0.073933	2.7038	-20.8671	746.708	-52.1261	282.1549	54.645	664.4536	-0.0592	0.0182	-0.0073	-0.0462	0.0165	0.9585
22.7968	0.29381	2.7706	0.064194	-1.0803	0.0099103	2.6184	-17.9571	753.7749	-52.1323	285.0846	53.2845	665.8606	-0.0592	0.0182	-0.0073	-0.0462	0.0165	0.9585
22.81	0.18683	2.4824	0.09196	-0.98326	-0.049158	2.3522	-14.9153	760.6274	-52.3652	287.991	52.0602	666.7838	-0.0592	0.0182	-0.0073	-0.0462	0.0165	0.9585
22.8232	0.078225	1.9433	0.12023	-0.79284	-0.11078	1.8289	-11.8164	766.539	-52.7001	290.5985	50.8901	666.6473	-0.0592	0.0182	-0.0073	-0.0462	0.0165	0.9585
22.8364	-0.028473	1.0812	0.14711	-0.4808	-0.17411	0.9831	-8.775	771.0065	-53.0172	292.7114	49.7115	665.0968	-0.0592	0.0182	-0.0073	-0.0462	0.0165	0.9585
22.8496	-0.10038	-0.16805	0.17201	-0.023296	-0.2241	-0.25182	-5.9011	773.8143	-53.2057	294.2366	48.4674	662.0428	-0.0592	0.0182	-0.0073	-0.0462	0.0165	0.9585
22.8629	-0.09468	-1.827	0.18642	0.58928	-0.23509	-1.8915	-3.2622	775.0073	-53.1963	295.1719	47.1259	657.6208	-0.0592	0.0182	-0.0073	-0.0462	0.0165	0.9585
22.8761	0.035698	-3.8392	0.17317	1.3362	-0.17031	-3.8791	-0.86855	774.8256	-52.9808	295.5791	45.6862	652.1307	-0.0592	0.0182	-0.0073	-0.0462	0.0165	0.9585
22.8893	0.35944	-5.9979	0.1139	2.1438	0.01267	-6.0179	1.3424	773.6254	-52.6163	295.5552	44.1722	645.9628	-0.0592	0.0182	-0.0073	-0.0462	0.0165	0.9585
22.9025	0.94118	-7.8698	-0.021807	2.8534	0.36735	-7.8787	3.4854	771.7382	-52.2091	295.1827	42.6243	639.4685	-0.0592	0.0182	-0.0073	-0.0462	0.0165	0.9585
22.9157	1.8601	-8.7413	-0.25541	3.1944	0.94404	-8.7565	5.6957	769.3142	-51.8734	294.4808	41.0829	632.8321	-0.0592	0.0182	-0.0073	-0.0462	0.0165	0.9585
22.9289	3.164	-7.5285	-0.61096	2.7552	1.7833	-7.5653	8.0796	766.2571	-51.6801	293.3875	39.5674	626.0239	-0.0592	0.0182	-0.0073	-0.0462	0.0165	0.9585
22.9421	4.8517	-2.7601	-1.095	0.98188	2.8834	-2.8383	10.6831	762.2065	-51.6415	291.7562	38.0762	618.7723	-0.0592	0.0182	-0.0073	-0.0462	0.0165	0.9585
22.9554	6.8178	7.3853	-1.6978	-2.8063	4.1839	7.239	13.4724	756.6144	-51.7064	289.3833	36.5883	610.6514	-0.0592	0.0182	-0.0073	-0.0462	0.0165	0.9585
22.9686	8.7841	24.8935	-2.3562	-9.3484	5.5093	24.6427	16.3344	748.7942	-51.7869	286.0251	35.0863	601.1288	-0.0592	0.0182	-0.0073	-0.0462	0.0165	0.9585
22.9818	10.2435	51.5185	-2.948	-19.2969	6.5381	51.1141	19.0912	737.9385	-51.7679	281.4034	33.5583	589.5784	-0.0592	0.0182	-0.0073	-0.0462	0.0165	0.9585
22.995	10.376	88.1417	-3.2497	-32.9761	6.7435	87.5391	21.5375	723.1379	-51.5063	275.211	31.9872	575.2959	-0.0592	0.0182	-0.0073	-0.0462	0.0165	0.9585
23.0082	8.1894	133.9387	-2.9578	-50.0706	5.4633	133.0859	23.4941	703.4345	-50.8231	267.1325	30.32	557.5303	-0.0592	0.0182	-0.0073	-0.0462	0.0165	0.9585
23.0214	3.1884	185.7221	-1.6995	-69.3686	2.1606	184.5432	24.8291	677.9597	-49.525	256.8943	28.4773	535.5928	-0.0592	0.0182	-0.0073	-0.0462	0.0165	0.9585
23.0346	-3.6183	238.181	1.1376	-88.8459	-3.3716	236.5204	25.4908	646.1242	-47.4517	244.3292	26.3809	508.9975	-0.0592	0.0182	-0.0073	-0.0462	0.0165	0.9585
23.0479	-10.6673	286.4671	5.7683	-106.6746	-10.6954	283.9551	25.516	607.859	-44.5738	229.4518	24.0186	477.6542	-0.0592	0.0182	-0.0073	-0.0462	0.0165	0.9585
23.0611	-16.8256	329.1843	11.4923	-122.348	-18.6662	325.2419	24.9976	563.7171	-41.03	212.482	21.4658	441.9699	-0.0592	0.0182	-0.0073	-0.0462	0.0165	0.9585
23.0743	-21.4545	367.3502	17.7169	-136.2835	-26.4463	361.3326	24.0564	514.6434	-37.0875	193.767	18.868	402.6617	-0.0592	0.0182	-0.0073	-0.0462	0.0165	0.9585
23.0875	-24.2946	402.6111	23.641	-149.1523	-33.1581	393.8309	22.7678	461.8124	-32.9715	173.7303	16.3456	360.6329	-0.0592	0.0182	-0.0073	-0.0462	0.0165	0.9585
